<svg xmlns="http://www.w3.org/2000/svg" width="90" height="320" viewBox="0 0 90 320">
  <rect x="0" y="0" width="90" height="320" fill="#2a3a2a"/>
  <line x1="18" y1="6" x2="18" y2="314" stroke="#DFDFE7" stroke-width="0.8" opacity="0.5"/>
  <line x1="36" y1="6" x2="36" y2="314" stroke="#DFDFE7" stroke-width="0.8" opacity="0.5"/>
  <line x1="54" y1="6" x2="54" y2="314" stroke="#DFDFE7" stroke-width="0.8" opacity="0.5"/>
  <line x1="72" y1="6" x2="72" y2="314" stroke="#DFDFE7" stroke-width="0.8" opacity="0.5"/>
  <line x1="6" y1="20" x2="84" y2="20" stroke="#DFDFE7" stroke-width="0.8" opacity="0.5"/>
  <line x1="6" y1="40" x2="84" y2="40" stroke="#DFDFE7" stroke-width="0.8" opacity="0.5"/>
  <line x1="6" y1="60" x2="84" y2="60" stroke="#DFDFE7" stroke-width="0.8" opacity="0.5"/>
  <line x1="6" y1="80" x2="84" y2="80" stroke="#DFDFE7" stroke-width="0.8" opacity="0.5"/>
  <line x1="6" y1="100" x2="84" y2="100" stroke="#DFDFE7" stroke-width="0.8" opacity="0.5"/>
  <line x1="6" y1="120" x2="84" y2="120" stroke="#DFDFE7" stroke-width="0.8" opacity="0.5"/>
  <line x1="6" y1="140" x2="84" y2="140" stroke="#DFDFE7" stroke-width="0.8" opacity="0.5"/>
  <line x1="6" y1="160" x2="84" y2="160" stroke="#DFDFE7" stroke-width="0.8" opacity="0.5"/>
  <line x1="6" y1="180" x2="84" y2="180" stroke="#DFDFE7" stroke-width="0.8" opacity="0.5"/>
  <line x1="6" y1="200" x2="84" y2="200" stroke="#DFDFE7" stroke-width="0.8" opacity="0.5"/>
  <line x1="6" y1="220" x2="84" y2="220" stroke="#DFDFE7" stroke-width="0.8" opacity="0.5"/>
  <line x1="6" y1="240" x2="84" y2="240" stroke="#DFDFE7" stroke-width="0.8" opacity="0.5"/>
  <line x1="6" y1="260" x2="84" y2="260" stroke="#DFDFE7" stroke-width="0.8" opacity="0.5"/>
  <line x1="6" y1="280" x2="84" y2="280" stroke="#DFDFE7" stroke-width="0.8" opacity="0.5"/>
  <line x1="6" y1="300" x2="84" y2="300" stroke="#DFDFE7" stroke-width="0.8" opacity="0.5"/>
  <rect x="84" y="0" width="6" height="320" fill="#FFFFFF"/>
  <rect x="0" y="0" width="90" height="6" fill="#FFFFFF"/>
  <rect x="0" y="314" width="90" height="6" fill="#FFFFFF"/>
</svg>
